<?xml version="1.0" encoding="UTF-8" standalone="no"?>
<svg xmlns:dc="http://purl.org/dc/elements/1.1/" xmlns:cc="http://creativecommons.org/ns#" xmlns:rdf="http://www.w3.org/1999/02/22-rdf-syntax-ns#" xmlns:svg="http://www.w3.org/2000/svg" xmlns="http://www.w3.org/2000/svg" version="1.1" id="svg2991" height="16px" width="16px">
  <defs id="defs2993" />
  <g id="layer1">
    <rect ry="3" rx="3" y="0.500005" x="0.500001" height="15" width="15" id="rect4275" style="fill:#ddbcff;fill-opacity:1;stroke:#000000;stroke-width:1.000002;stroke-linecap:square;stroke-linejoin:miter;stroke-miterlimit:4;stroke-opacity:1;stroke-dasharray:none;stroke-dashoffset:0" />
    <path transform="matrix(0.6,0,0,0.428571,68.9,36.9285)" d="m -99,-67.5 a 2.5,3.5 0 1 1 -5,0 2.5,3.5 0 1 1 5,0 z" id="path4277" style="fill:#000000;fill-opacity:1;stroke:none" />
    <path style="fill:#000000;fill-opacity:1;stroke:none" id="path4279" d="m -99,-67.5 a 2.5,3.5 0 1 1 -5,0 2.5,3.5 0 1 1 5,0 z" transform="matrix(0.6,0,0,0.428571,65.4,33.4286)" />
    <path style="fill:#000000;fill-opacity:1;stroke:none" id="path4281" d="m -99,-67.5 a 2.5,3.5 0 1 1 -5,0 2.5,3.5 0 1 1 5,0 z" transform="matrix(0.6,0,0,0.428571,72.4,40.4286)" />
  </g>
</svg>
