<?xml version="1.0" encoding="UTF-8" standalone="no"?>
<svg xmlns:svg="http://www.w3.org/2000/svg" xmlns="http://www.w3.org/2000/svg" xmlns:xlink="http://www.w3.org/1999/xlink" version="1.1" id="svg2991" height="16px" width="16px">
  <defs id="defs2993">
    <linearGradient id="linearGradient5727">
      <stop style="stop-color:#ebd6ff;stop-opacity:1" offset="0" id="stop5731" />
      <stop style="stop-color:#d1a5fd;stop-opacity:1" offset="1" id="stop5733" />
    </linearGradient>
    <radialGradient gradientTransform="matrix(0,1.96875,-1.96875,0,9.96881,-14.7499)" gradientUnits="userSpaceOnUse" r="8" fy="1.00001" fx="8" cy="1.00001" cx="8" id="radialGradient5729" xlink:href="#linearGradient5727" />
  </defs>
  <g id="layer1">
    <rect ry="3" rx="3" y="0.500005" x="0.500001" height="15" width="15" id="rect4275" style="fill:url(#radialGradient5729);fill-opacity:1;stroke:#5c008a;stroke-width:1.000002;stroke-linecap:square;stroke-linejoin:miter;stroke-miterlimit:4;stroke-opacity:1;stroke-dasharray:none;stroke-dashoffset:0" />
    <path transform="matrix(0.6,0,0,0.428571,68.9,36.9285)" d="m -99,-67.5 a 2.5,3.5 0 1 1 -5,0 2.5,3.5 0 1 1 5,0 z" id="path4277" style="fill:#000000;fill-opacity:1;stroke:none" />
    <path style="fill:#000000;fill-opacity:1;stroke:none" id="path4279" d="m -99,-67.5 a 2.5,3.5 0 1 1 -5,0 2.5,3.5 0 1 1 5,0 z" transform="matrix(0.6,0,0,0.428571,65.4,33.4286)" />
    <path style="fill:#000000;fill-opacity:1;stroke:none" id="path4281" d="m -99,-67.5 a 2.5,3.5 0 1 1 -5,0 2.5,3.5 0 1 1 5,0 z" transform="matrix(0.6,0,0,0.428571,72.4,40.4286)" />
  </g>
</svg>
