<?xml version="1.0" encoding="UTF-8" standalone="no"?>
<!-- Created with Inkscape (http://www.inkscape.org/) -->

<svg
   xmlns:dc="http://purl.org/dc/elements/1.1/"
   xmlns:cc="http://creativecommons.org/ns#"
   xmlns:rdf="http://www.w3.org/1999/02/22-rdf-syntax-ns#"
   xmlns:svg="http://www.w3.org/2000/svg"
   xmlns="http://www.w3.org/2000/svg"
   xmlns:xlink="http://www.w3.org/1999/xlink"
   version="1.1"
   width="64"
   height="64"
   id="svg2">
  <defs
     id="defs4">
    <linearGradient
       id="linearGradient3828">
      <stop
         id="stop3830"
         style="stop-color:#f8ec9d;stop-opacity:1"
         offset="0" />
      <stop
         id="stop3832"
         style="stop-color:#f4e473;stop-opacity:1"
         offset="1" />
    </linearGradient>
    <linearGradient
       id="linearGradient3808">
      <stop
         id="stop3810"
         style="stop-color:#faf2bb;stop-opacity:1"
         offset="0" />
      <stop
         id="stop3812"
         style="stop-color:#f1dd51;stop-opacity:1"
         offset="1" />
    </linearGradient>
    <linearGradient
       id="linearGradient3765">
      <stop
         id="stop3767"
         style="stop-color:#f3e8ff;stop-opacity:1"
         offset="0" />
      <stop
         id="stop3769"
         style="stop-color:#bc7aff;stop-opacity:1"
         offset="1" />
    </linearGradient>
    <radialGradient
       cx="10.1914"
       cy="989.814"
       r="8"
       fx="10.1914"
       fy="989.814"
       id="radialGradient3771"
       xlink:href="#linearGradient3765"
       gradientUnits="userSpaceOnUse"
       gradientTransform="matrix(0.788661,2.16682,-1.97467,0.718723,1956.71,256.327)" />
    <radialGradient
       cx="43.4352"
       cy="1008.91"
       r="45"
       fx="43.4352"
       fy="1008.91"
       id="radialGradient3814"
       xlink:href="#linearGradient3808"
       gradientUnits="userSpaceOnUse"
       gradientTransform="matrix(0,1.03483,-1.03483,0,1087.05,964.412)" />
    <linearGradient
       x1="60.75"
       y1="1028.83"
       x2="60.75"
       y2="1044.51"
       id="linearGradient3826"
       xlink:href="#linearGradient3828"
       gradientUnits="userSpaceOnUse" />
  </defs>
  <metadata
     id="metadata7">
    <rdf:RDF>
      <cc:Work
         rdf:about="">
        <dc:format>image/svg+xml</dc:format>
        <dc:type
           rdf:resource="http://purl.org/dc/dcmitype/StillImage" />
        <dc:title></dc:title>
      </cc:Work>
    </rdf:RDF>
  </metadata>
  <g
     transform="translate(0,-988.36)"
     id="layer1">
    <path
       d="m 28,1008.36 30,0 c 1.108,0 2,0.89 2,2 l 0,17 c 0,1 3,1 3,2 l 0,15 c 0,1 -3,1 -3,2 l 0,3 c 0,1.11 -0.892,2 -2,2 l -30,0 c -1.108,0 -2,-0.89 -2,-2 l 0,-39 c 0,-1.11 0.892,-2 2,-2 z"
       id="path3802"
       style="fill:url(#linearGradient3826);fill-opacity:1;stroke:#c4a626;stroke-width:2;stroke-linecap:square;stroke-linejoin:miter;stroke-miterlimit:4;stroke-opacity:1;stroke-dashoffset:0" />
    <path
       d="m 28,1008.36 30,0 c 1.108,0 2,0.89 2,2 l 0,17 c 0,1 -1,1 -1,2 l 0,15 c 0,1 1,1 1,2 l 0,3 c 0,1.11 -0.892,2 -2,2 l -30,0 c -1.108,0 -2,-0.89 -2,-2 l 0,-39 c 0,-1.11 0.892,-2 2,-2 z"
       id="rect3753"
       style="fill:url(#radialGradient3814);fill-opacity:1;stroke:#c4a626;stroke-width:2;stroke-linecap:square;stroke-linejoin:miter;stroke-miterlimit:4;stroke-opacity:1;stroke-dashoffset:0" />
    <g
       transform="matrix(2.06732,0.752444,-0.752444,2.06732,744.958,-1063.49)"
       id="g3027">
      <rect
         width="15"
         height="15"
         rx="3"
         ry="3"
         x="5.5"
         y="990.36"
         id="rect4275"
         style="fill:url(#radialGradient3771);fill-opacity:1;stroke:#000000;stroke-width:1.000002;stroke-linecap:square;stroke-linejoin:miter;stroke-miterlimit:4;stroke-opacity:1;stroke-dasharray:none;stroke-dashoffset:0" />
      <path
         d="m -99,-67.5 a 2.5,3.5 0 1 1 -5,0 2.5,3.5 0 1 1 5,0 z"
         transform="matrix(0.6,0,0,0.428571,73.9,1026.79)"
         id="path4277"
         style="fill:#000000;fill-opacity:1;stroke:none" />
      <path
         d="m -99,-67.5 a 2.5,3.5 0 1 1 -5,0 2.5,3.5 0 1 1 5,0 z"
         transform="matrix(0.6,0,0,0.428571,70.4,1023.29)"
         id="path4279"
         style="fill:#000000;fill-opacity:1;stroke:none" />
      <path
         d="m -99,-67.5 a 2.5,3.5 0 1 1 -5,0 2.5,3.5 0 1 1 5,0 z"
         transform="matrix(0.6,0,0,0.428571,77.4,1030.29)"
         id="path4281"
         style="fill:#000000;fill-opacity:1;stroke:none" />
    </g>
  </g>
</svg>
