<?xml version="1.0" encoding="UTF-8" standalone="no"?>
<!-- Created with Inkscape (http://www.inkscape.org/) -->

<svg
   xmlns:dc="http://purl.org/dc/elements/1.1/"
   xmlns:cc="http://creativecommons.org/ns#"
   xmlns:rdf="http://www.w3.org/1999/02/22-rdf-syntax-ns#"
   xmlns:svg="http://www.w3.org/2000/svg"
   xmlns="http://www.w3.org/2000/svg"
   xmlns:xlink="http://www.w3.org/1999/xlink"
   xmlns:sodipodi="http://sodipodi.sourceforge.net/DTD/sodipodi-0.dtd"
   xmlns:inkscape="http://www.inkscape.org/namespaces/inkscape"
   width="64"
   height="64"
   id="svg2"
   version="1.1"
   inkscape:version="0.48.4 r9939"
   sodipodi:docname="ExtIcon.svg">
  <defs
     id="defs4">
    <linearGradient
       id="linearGradient3828">
      <stop
         id="stop3830"
         offset="0"
         style="stop-color:#f8ec9d;stop-opacity:1;" />
      <stop
         id="stop3832"
         offset="1"
         style="stop-color:#f4e473;stop-opacity:1" />
    </linearGradient>
    <linearGradient
       id="linearGradient3808">
      <stop
         style="stop-color:#faf2bb;stop-opacity:1;"
         offset="0"
         id="stop3810" />
      <stop
         style="stop-color:#f1dd51;stop-opacity:1;"
         offset="1"
         id="stop3812" />
    </linearGradient>
    <linearGradient
       id="linearGradient3765">
      <stop
         style="stop-color:#f3e8ff;stop-opacity:1;"
         offset="0"
         id="stop3767" />
      <stop
         style="stop-color:#bc7aff;stop-opacity:1;"
         offset="1"
         id="stop3769" />
    </linearGradient>
    <radialGradient
       inkscape:collect="always"
       xlink:href="#linearGradient3765"
       id="radialGradient3771"
       cx="10.1914"
       cy="989.814"
       fx="10.1914"
       fy="989.814"
       r="8"
       gradientUnits="userSpaceOnUse"
       gradientTransform="matrix(0.788661,2.16682,-1.97467,0.718723,1956.71,256.327)" />
    <radialGradient
       inkscape:collect="always"
       xlink:href="#linearGradient3808"
       id="radialGradient3814"
       cx="43.4352"
       cy="1008.91"
       fx="43.4352"
       fy="1008.91"
       r="45"
       gradientUnits="userSpaceOnUse"
       gradientTransform="matrix(0,1.03483,-1.03483,0,1087.05,964.412)" />
    <linearGradient
       inkscape:collect="always"
       xlink:href="#linearGradient3828"
       id="linearGradient3826"
       x1="60.75"
       y1="1028.83"
       x2="60.75"
       y2="1044.51"
       gradientUnits="userSpaceOnUse" />
  </defs>
  <sodipodi:namedview
     id="base"
     pagecolor="#ffffff"
     bordercolor="#666666"
     borderopacity="1.0"
     inkscape:pageopacity="0.0"
     inkscape:pageshadow="2"
     inkscape:zoom="0.75"
     inkscape:cx="23.2917"
     inkscape:cy="47.6667"
     inkscape:document-units="px"
     inkscape:current-layer="layer1"
     showgrid="true" />
  <metadata
     id="metadata7">
    <rdf:RDF>
      <cc:Work
         rdf:about="">
        <dc:format>image/svg+xml</dc:format>
        <dc:type
           rdf:resource="http://purl.org/dc/dcmitype/StillImage" />
        <dc:title />
      </cc:Work>
    </rdf:RDF>
  </metadata>
  <g
     inkscape:label="Layer 1"
     inkscape:groupmode="layer"
     id="layer1"
     transform="translate(0,-988.36)">
    <path
       sodipodi:nodetypes="sssccccssssss"
       inkscape:connector-curvature="0"
       id="path3802"
       d="m 28,1008.36 30,0 c 1.108,0 2,0.89 2,2 l 0,17 c 0,1 3,1 3,2 l 0,15 c 0,1 -3,1 -3,2 l 0,3 c 0,1.11 -0.892,2 -2,2 l -30,0 c -1.108,0 -2,-0.89 -2,-2 l 0,-39 c 0,-1.11 0.892,-2 2,-2 z"
       style="fill:url(#linearGradient3826);fill-opacity:1;stroke:#c4a626;stroke-width:2;stroke-linecap:square;stroke-linejoin:miter;stroke-miterlimit:4;stroke-opacity:1;stroke-dashoffset:0" />
    <path
       style="fill:url(#radialGradient3814);fill-opacity:1;stroke:#c4a626;stroke-width:2;stroke-linecap:square;stroke-linejoin:miter;stroke-miterlimit:4;stroke-opacity:1;stroke-dashoffset:0"
       d="m 28,1008.36 30,0 c 1.108,0 2,0.89 2,2 l 0,17 c 0,1 -1,1 -1,2 l 0,15 c 0,1 1,1 1,2 l 0,3 c 0,1.11 -0.892,2 -2,2 l -30,0 c -1.108,0 -2,-0.89 -2,-2 l 0,-39 c 0,-1.11 0.892,-2 2,-2 z"
       id="rect3753"
       inkscape:connector-curvature="0"
       sodipodi:nodetypes="sssccccssssss" />
    <g
       id="g3027"
       transform="matrix(2.06732,0.752444,-0.752444,2.06732,744.958,-1063.49)">
      <rect
         ry="3"
         rx="3"
         y="990.36"
         x="5.5"
         height="15"
         width="15"
         id="rect4275"
         style="fill:url(#radialGradient3771);fill-opacity:1;stroke:#000000;stroke-width:1.00000200000000010;stroke-linecap:square;stroke-linejoin:miter;stroke-miterlimit:4;stroke-opacity:1;stroke-dasharray:none;stroke-dashoffset:0" />
      <path
         transform="matrix(0.6,0,0,0.428571,73.9,1026.79)"
         d="m -99,-67.5 c 0,1.933 -1.119,3.5 -2.5,3.5 -1.381,0 -2.5,-1.567 -2.5,-3.5 0,-1.933 1.119,-3.5 2.5,-3.5 1.381,0 2.5,1.567 2.5,3.5 z"
         sodipodi:ry="3.5"
         sodipodi:rx="2.5"
         sodipodi:cy="-67.5"
         sodipodi:cx="-101.5"
         id="path4277"
         style="fill:#000000;fill-opacity:1;stroke:none"
         sodipodi:type="arc" />
      <path
         sodipodi:type="arc"
         style="fill:#000000;fill-opacity:1;stroke:none"
         id="path4279"
         sodipodi:cx="-101.5"
         sodipodi:cy="-67.5"
         sodipodi:rx="2.5"
         sodipodi:ry="3.5"
         d="m -99,-67.5 c 0,1.933 -1.119,3.5 -2.5,3.5 -1.381,0 -2.5,-1.567 -2.5,-3.5 0,-1.933 1.119,-3.5 2.5,-3.5 1.381,0 2.5,1.567 2.5,3.5 z"
         transform="matrix(0.6,0,0,0.428571,70.4,1023.29)" />
      <path
         sodipodi:type="arc"
         style="fill:#000000;fill-opacity:1;stroke:none"
         id="path4281"
         sodipodi:cx="-101.5"
         sodipodi:cy="-67.5"
         sodipodi:rx="2.5"
         sodipodi:ry="3.5"
         d="m -99,-67.5 c 0,1.933 -1.119,3.5 -2.5,3.5 -1.381,0 -2.5,-1.567 -2.5,-3.5 0,-1.933 1.119,-3.5 2.5,-3.5 1.381,0 2.5,1.567 2.5,3.5 z"
         transform="matrix(0.6,0,0,0.428571,77.4,1030.29)" />
    </g>
  </g>
</svg>
