<?xml version="1.0" encoding="UTF-8" standalone="no"?>
<!-- Created with Inkscape (http://www.inkscape.org/) -->

<svg xmlns:dc="http://purl.org/dc/elements/1.1/" xmlns:cc="http://creativecommons.org/ns#" xmlns:rdf="http://www.w3.org/1999/02/22-rdf-syntax-ns#" xmlns:svg="http://www.w3.org/2000/svg" xmlns="http://www.w3.org/2000/svg" xmlns:xlink="http://www.w3.org/1999/xlink" xmlns:sodipodi="http://sodipodi.sourceforge.net/DTD/sodipodi-0.dtd" xmlns:inkscape="http://www.inkscape.org/namespaces/inkscape" width="16" height="16" viewBox="0 0 16 16" version="1.1" id="SVGRoot" inkscape:version="0.92.2 (5c3e80d, 2017-08-06)" sodipodi:docname="FolderIcon.svg">
  <sodipodi:namedview id="base" pagecolor="#ffffff" bordercolor="#666666" borderopacity="1.0" inkscape:pageopacity="0.0" inkscape:pageshadow="2" inkscape:zoom="10.6667" inkscape:cx="18.8437" inkscape:cy="33.4687" inkscape:document-units="px" inkscape:current-layer="SVGRoot" showgrid="false" inkscape:grid-bbox="true" />
  <defs id="defs884">
    <radialGradient inkscape:collect="always" xlink:href="#linearGradient3808" id="radialGradient3814" cx="43.4352" cy="1008.91" fx="43.4352" fy="1008.91" r="45" gradientUnits="userSpaceOnUse" gradientTransform="matrix(0,0.36794,-0.36794,0,379.215,-15.2705)" />
    <linearGradient id="linearGradient3808">
      <stop style="stop-color:#faf2bb;stop-opacity:1" offset="0" id="stop3810" />
      <stop style="stop-color:#f1dd51;stop-opacity:1" offset="1" id="stop3812" />
    </linearGradient>
    <linearGradient gradientTransform="matrix(0.355556,0,0,0.355556,-7.2889,-358.175)" inkscape:collect="always" xlink:href="#linearGradient3828" id="linearGradient3826" x1="60.75" y1="1028.83" x2="60.75" y2="1044.51" gradientUnits="userSpaceOnUse" />
    <linearGradient id="linearGradient3828">
      <stop id="stop3830" offset="0" style="stop-color:#f8ec9d;stop-opacity:1" />
      <stop id="stop3832" offset="1" style="stop-color:#f4e473;stop-opacity:1" />
    </linearGradient>
  </defs>
  <metadata id="metadata887">
    <rdf:RDF>
      <cc:Work rdf:about="">
        <dc:format>image/svg+xml</dc:format>
        <dc:type rdf:resource="http://purl.org/dc/dcmitype/StillImage" />
        <dc:title></dc:title>
      </cc:Work>
    </rdf:RDF>
  </metadata>
  <g id="layer1" inkscape:groupmode="layer" inkscape:label="Layer 1" />
  <path sodipodi:nodetypes="sssccccssssss" inkscape:connector-curvature="0" id="path3802" d="M 2.66667,0.35558 H 13.3333 c 0.394,0 0.7111,0.31644 0.7111,0.71111 v 6.04444 c 0,0.35556 1.0667,0.35556 1.0667,0.71111 v 5.33336 c 0,0.3555 -1.0667,0.3555 -1.0667,0.7111 v 1.0666 c 0,0.3947 -0.3171,0.7111 -0.7111,0.7111 H 2.66667 c -0.39396,0 -0.71111,-0.3164 -0.71111,-0.7111 V 1.06669 c 0,-0.39467 0.31715,-0.71111 0.71111,-0.71111 z" style="fill:url(#linearGradient3826);fill-opacity:1;stroke:#c4a626;stroke-width:0.711111;stroke-linecap:square;stroke-linejoin:miter;stroke-miterlimit:4;stroke-dashoffset:0;stroke-opacity:1" />
  <path style="fill:url(#radialGradient3814);fill-opacity:1;stroke:#c4a626;stroke-width:0.711111;stroke-linecap:square;stroke-linejoin:miter;stroke-miterlimit:4;stroke-dashoffset:0;stroke-opacity:1" d="M 2.66667,0.35558 H 13.3333 c 0.394,0 0.7111,0.31644 0.7111,0.71111 v 6.04444 c 0,0.35556 -0.3555,0.35556 -0.3555,0.71111 v 5.33336 c 0,0.3555 0.3555,0.3555 0.3555,0.7111 v 1.0666 c 0,0.3947 -0.3171,0.7111 -0.7111,0.7111 H 2.66667 c -0.39396,0 -0.71111,-0.3164 -0.71111,-0.7111 V 1.06669 c 0,-0.39467 0.31715,-0.71111 0.71111,-0.71111 z" id="rect3753" inkscape:connector-curvature="0" sodipodi:nodetypes="sssccccssssss" />
</svg>
