<?xml version="1.0" encoding="UTF-8" standalone="no"?>
<!-- Created with Inkscape (http://www.inkscape.org/) -->

<svg
   xmlns:dc="http://purl.org/dc/elements/1.1/"
   xmlns:cc="http://creativecommons.org/ns#"
   xmlns:rdf="http://www.w3.org/1999/02/22-rdf-syntax-ns#"
   xmlns:svg="http://www.w3.org/2000/svg"
   xmlns="http://www.w3.org/2000/svg"
   xmlns:sodipodi="http://sodipodi.sourceforge.net/DTD/sodipodi-0.dtd"
   xmlns:inkscape="http://www.inkscape.org/namespaces/inkscape"
   width="16px"
   height="16px"
   id="svg2991"
   version="1.1"
   inkscape:version="0.48.4 r9939"
   sodipodi:docname="MenuIcon.svg"
   inkscape:export-filename="D:\Random Bookmark\Firefox\content\MenuIcon.png"
   inkscape:export-xdpi="180"
   inkscape:export-ydpi="180">
  <defs
     id="defs2993" />
  <sodipodi:namedview
     id="base"
     pagecolor="#ffffff"
     bordercolor="#666666"
     borderopacity="1.0"
     inkscape:pageopacity="0.0"
     inkscape:pageshadow="2"
     inkscape:zoom="1"
     inkscape:cx="-24.999"
     inkscape:cy="36.655"
     inkscape:current-layer="layer1"
     showgrid="true"
     inkscape:grid-bbox="true"
     inkscape:document-units="px"
     showborder="false" />
  <metadata
     id="metadata2996">
    <rdf:RDF>
      <cc:Work
         rdf:about="">
        <dc:format>image/svg+xml</dc:format>
        <dc:type
           rdf:resource="http://purl.org/dc/dcmitype/StillImage" />
        <dc:title></dc:title>
      </cc:Work>
    </rdf:RDF>
  </metadata>
  <g
     id="layer1"
     inkscape:label="Layer 1"
     inkscape:groupmode="layer">
    <rect
       style="fill:#ddbcff;fill-opacity:1;stroke:#000000;stroke-width:1.000002;stroke-linecap:square;stroke-linejoin:miter;stroke-miterlimit:4;stroke-opacity:1;stroke-dasharray:none;stroke-dashoffset:0"
       id="rect4275"
       width="15"
       height="15"
       x="0.500001"
       y="0.500005"
       rx="3"
       ry="3" />
    <path
       sodipodi:type="arc"
       style="fill:#000000;fill-opacity:1;stroke:none"
       id="path4277"
       sodipodi:cx="-101.5"
       sodipodi:cy="-67.5"
       sodipodi:rx="2.5"
       sodipodi:ry="3.5"
       d="m -99,-67.5 a 2.5,3.5 0 1 1 -5,0 2.5,3.5 0 1 1 5,0 z"
       transform="matrix(0.6,0,0,0.428571,68.9,36.9285)" />
    <path
       transform="matrix(0.6,0,0,0.428571,65.4,33.4286)"
       d="m -99,-67.5 a 2.5,3.5 0 1 1 -5,0 2.5,3.5 0 1 1 5,0 z"
       sodipodi:ry="3.5"
       sodipodi:rx="2.5"
       sodipodi:cy="-67.5"
       sodipodi:cx="-101.5"
       id="path4279"
       style="fill:#000000;fill-opacity:1;stroke:none"
       sodipodi:type="arc" />
    <path
       transform="matrix(0.6,0,0,0.428571,72.4,40.4286)"
       d="m -99,-67.5 a 2.5,3.5 0 1 1 -5,0 2.5,3.5 0 1 1 5,0 z"
       sodipodi:ry="3.5"
       sodipodi:rx="2.5"
       sodipodi:cy="-67.5"
       sodipodi:cx="-101.5"
       id="path4281"
       style="fill:#000000;fill-opacity:1;stroke:none"
       sodipodi:type="arc" />
  </g>
</svg>
