<?xml version="1.0" encoding="UTF-8" standalone="no"?>
<svg xmlns:svg="http://www.w3.org/2000/svg" xmlns="http://www.w3.org/2000/svg" xmlns:xlink="http://www.w3.org/1999/xlink" id="SVGRoot" version="1.1" viewBox="0 0 16 16" height="16" width="16">
  <defs id="defs884">
    <radialGradient gradientTransform="matrix(0,0.36794,-0.36794,0,379.215,-15.2705)" gradientUnits="userSpaceOnUse" r="45" fy="1008.91" fx="43.4352" cy="1008.91" cx="43.4352" id="radialGradient3814" xlink:href="#linearGradient3808" />
    <linearGradient id="linearGradient3808">
      <stop id="stop3810" offset="0" style="stop-color:#faf2bb;stop-opacity:1" />
      <stop id="stop3812" offset="1" style="stop-color:#f1dd51;stop-opacity:1" />
    </linearGradient>
    <linearGradient gradientUnits="userSpaceOnUse" y2="1044.51" x2="60.75" y1="1028.83" x1="60.75" id="linearGradient3826" xlink:href="#linearGradient3828" gradientTransform="matrix(0.355556,0,0,0.355556,-7.2889,-358.175)" />
    <linearGradient id="linearGradient3828">
      <stop style="stop-color:#f8ec9d;stop-opacity:1" offset="0" id="stop3830" />
      <stop style="stop-color:#f4e473;stop-opacity:1" offset="1" id="stop3832" />
    </linearGradient>
  </defs>
  <g id="layer1" />
  <path style="fill:url(#linearGradient3826);fill-opacity:1;stroke:#c4a626;stroke-width:0.710551;stroke-linecap:square;stroke-linejoin:miter;stroke-miterlimit:4;stroke-dasharray:none;stroke-dashoffset:0;stroke-opacity:1" d="M 2.66667,0.35558 H 13.3333 c 0.394,0 0.7111,0.31644 0.7111,0.71111 v 6.04444 c 0,0.35556 1.5667,0.54306 1.5667,0.89861 v 4.95836 c 0,0.3555 -1.5667,0.543 -1.5667,0.8986 v 1.0666 c 0,0.3947 -0.3171,0.7111 -0.7111,0.7111 H 2.66667 c -0.39396,0 -0.71111,-0.3164 -0.71111,-0.7111 V 1.06669 c 0,-0.39467 0.31715,-0.71111 0.71111,-0.71111 z" id="path3802" />
  <path id="rect3753" d="M 2.66667,0.35558 H 13.3333 c 0.394,0 0.7111,0.31644 0.7111,0.71111 v 6.04444 c 0,0.35556 -0.543,0.35556 -0.543,0.71111 v 5.33336 c 0,0.3555 0.543,0.3555 0.543,0.7111 v 1.0666 c 0,0.3947 -0.3171,0.7111 -0.7111,0.7111 H 2.66667 c -0.39396,0 -0.71111,-0.3164 -0.71111,-0.7111 V 1.06669 c 0,-0.39467 0.31715,-0.71111 0.71111,-0.71111 z" style="fill:url(#radialGradient3814);fill-opacity:1;stroke:#c4a626;stroke-width:0.711111;stroke-linecap:square;stroke-linejoin:miter;stroke-miterlimit:4;stroke-dashoffset:0;stroke-opacity:1" />
</svg>
